PathFileType	4	(X/Y/Z)	C:/Users/opensim2020/Desktop/walking_exp_matlab/subject03_walking15_straight_02.trc																																																																																																																																											
DataRate	CameraRate	NumFrames	NumMarkers	Units	OrigDataRate	OrigDataStartFrame	OrigNumFrames																																																																																																																																							
100	100	9	47	mm	100	1196	149																																																																																																																																							
Frame#	Time	LFHD			RFHD			LBHD			RBHD			C7			T10			CLAV			STRN			RBAK			LSHO			LUPA			LELB			LFRM			LWRA			LWRB			LFIN			RSHO			RUPA			RELB			RFRM			RWRA			RWRB			RFIN			LASI			RASI			LPSI			RPSI			LTHI			LKNE			LTIB			LANK			LHEE			LTOE			RTHI			RKNE			RTIB			RANK			RHEE			RTOE			*39			*40			*41			*42			*43			*44			*45			*46		
		X1	Y1	Z1	X2	Y2	Z2	X3	Y3	Z3	X4	Y4	Z4	X5	Y5	Z5	X6	Y6	Z6	X7	Y7	Z7	X8	Y8	Z8	X9	Y9	Z9	X10	Y10	Z10	X11	Y11	Z11	X12	Y12	Z12	X13	Y13	Z13	X14	Y14	Z14	X15	Y15	Z15	X16	Y16	Z16	X17	Y17	Z17	X18	Y18	Z18	X19	Y19	Z19	X20	Y20	Z20	X21	Y21	Z21	X22	Y22	Z22	X23	Y23	Z23	X24	Y24	Z24	X25	Y25	Z25	X26	Y26	Z26	X27	Y27	Z27	X28	Y28	Z28	X29	Y29	Z29	X30	Y30	Z30	X31	Y31	Z31	X32	Y32	Z32	X33	Y33	Z33	X34	Y34	Z34	X35	Y35	Z35	X36	Y36	Z36	X37	Y37	Z37	X38	Y38	Z38	X39	Y39	Z39	X40	Y40	Z40	X41	Y41	Z41	X42	Y42	Z42	X43	Y43	Z43	X44	Y44	Z44	X45	Y45	Z45	X46	Y46	Z46	X47	Y47	Z47
																																																																																																																																														
112	1.11	528.31458	1605.20593	910.37708	534.71069	1620.16028	1042.03772	398.09317	1571.86316	924.6441	409.55338	1585.85303	1054.03113	369.07147	1407.02405	992.88556	355.21201	1090.57886	992.8017	493.57404	1337.36304	991.29242	549.06415	1176.4502	987.17212	329.00983	1226.38184	1090.41003	438.87747	1370.43848	835.72321	433.49142	1171.39343	767.71985	449.18439	1048.02722	759.12274	486.02298	922.55304	763.70447	520.16827	810.20911	796.78009	491.51102	808.59174	749.24188	524.35345	733.896	756.49493	445.69696	1362.20264	1151.47656	474.06854	1146.97009	1237.05237	509.45792	1041.0177	1253.59802	564.73395	916.06561	1252.49023	620.40057	835.66742	1213.23755	594.09833	820.39838	1257.54602	639.67786	763.04559	1247.30579	533.36493	937.12445	880.27704	523.26422	937.31464	1116.91833	368.69968	947.08929	923.20355	363.85873	961.93927	1071.5105	568.72198	645.93994	825.33832	636.3186	481.81903	854.15259	601.94238	283.7475	861.9198	606.51575	74.96574	906.61615	573.52795	38.14582	952.44885	754.34668	48.46413	910.18073	445.56827	640.94525	1150.26123	435.53641	462.26642	1110.62915	354.63483	284.66159	1111.39185	280.55194	81.13871	1061.27917	230.49857	56.44915	1011.59247	415.75351	31.38932	1047.3114	NaN	NaN	NaN	NaN	NaN	NaN	NaN	NaN	NaN	NaN	NaN	NaN	NaN	NaN	NaN	NaN	NaN	NaN	NaN	NaN	NaN	NaN	NaN	NaN
113	1.12	541.54944	1603.14709	909.44983	548.04254	1618.96167	1040.96631	411.41086	1569.7937	923.87073	423.00214	1584.34998	1053.35852	382.68613	1405.49365	992.13696	368.94629	1088.95349	991.4234	507.17941	1335.71753	991.21594	562.61914	1174.79443	987.54749	342.2778	1225.04163	1089.89258	453.39285	1368.60242	835.23163	447.95206	1169.33679	767.80408	461.70773	1045.87646	759.36267	492.98288	918.62756	762.79175	520.48413	803.8103	794.06818	492.44366	804.55792	746.10541	520.68542	727.93536	752.42078	458.89905	1360.93433	1151.23901	488.87997	1146.21619	1237.22656	525.76715	1040.88403	1253.96045	584.47076	917.66492	1252.26172	642.81024	839.51416	1212.61658	616.70294	822.89008	1256.27002	664.0603	767.25653	1246.01086	549.01898	935.42108	880.67871	535.3493	935.60309	1117.48608	383.68765	945.45959	920.80273	376.63831	960.03455	1069.10168	581.57623	643.39624	824.75934	649.79657	479.19705	855.28088	627.06378	281.0025	862.70648	646.33533	72.33954	906.52435	616.10223	33.81086	952.35358	795.87231	54.44289	908.69171	454.42755	640.09253	1150.04016	442.29767	461.34671	1110.61633	358.4321	285.11542	1111.15222	281.11008	82.82237	1061.2041	231.04324	58.53493	1011.06201	415.77612	31.31939	1047.19543	464.90106	1673.22852	963.65936	NaN	NaN	NaN	NaN	NaN	NaN	NaN	NaN	NaN	NaN	NaN	NaN	NaN	NaN	NaN	NaN	NaN	NaN	NaN	NaN	NaN
114	1.13	554.18622	1601.73364	908.31403	561.26355	1617.6012	1039.87024	424.52591	1567.58118	923.23065	436.32532	1582.64917	1052.55908	396.23669	1403.63269	991.44592	382.82999	1087.16467	990.01691	520.85248	1333.98376	991.11237	576.41162	1173.05725	987.93738	355.56451	1223.50378	1089.29956	468.15665	1366.65173	834.74219	462.40311	1167.22351	767.8786	475.34915	1043.55688	759.80164	500.28867	915.04333	761.94153	521.33081	798.20325	791.32092	494.21198	801.30817	742.76685	517.23932	722.59418	749.0285	472.05002	1359.39111	1150.71045	503.35947	1145.31934	1237.23401	541.67395	1040.61292	1254.16223	603.70026	919.21033	1251.81299	664.5249	843.3598	1211.69141	638.77399	825.63361	1255.20227	687.94586	771.54956	1244.53894	564.67682	933.39905	881.1499	547.40393	933.69928	1117.80164	398.87421	943.7146	918.52393	389.67081	958.09155	1066.73242	593.92719	640.03711	823.66864	663.31854	476.71396	856.89844	651.41083	278.95557	863.61383	683.51294	71.30824	905.20166	656.53485	31.18237	950.95203	834.99158	61.62628	907.55115	463.8157	639.12805	1149.78113	449.61063	460.3681	1110.66211	362.6604	285.56107	1111.03357	282.07669	84.31965	1060.7356	231.60706	60.92713	1010.7464	415.85474	31.36114	1047.24402	NaN	NaN	NaN	NaN	NaN	NaN	NaN	NaN	NaN	NaN	NaN	NaN	NaN	NaN	NaN	NaN	NaN	NaN	NaN	NaN	NaN	NaN	NaN	NaN
115	1.14	567.57977	1599.67908	907.04028	574.46442	1616.16638	1038.68237	437.69293	1565.29089	922.50757	449.68784	1580.8927	1051.81213	409.69992	1401.59619	990.58051	396.9736	1085.06079	988.49194	534.57758	1332.09424	990.96484	590.28363	1171.2699	988.29279	368.92804	1221.71655	1088.54163	483.13077	1364.58093	834.26727	477.22278	1164.99487	767.76306	488.52948	1041.43945	760.18207	508.18478	911.89325	760.99744	522.27118	793.3656	788.9201	497.15189	798.8031	739.32898	514.1825	718.11969	745.86279	485.26932	1357.43433	1150.15198	517.62201	1144.18896	1237.15552	557.09509	1040.15222	1254.20471	622.45093	920.68665	1251.26013	685.61511	847.15942	1210.53638	660.26624	828.11102	1253.78735	711.2016	775.87512	1242.91467	580.26007	931.12189	881.60925	559.81799	931.68921	1118.3717	414.13495	941.92737	916.13281	402.86951	956.16949	1064.44507	605.28589	636.08478	822.75391	675.72888	473.7886	859.32782	674.72296	277.52341	864.39893	719.08466	71.34866	903.6084	694.66882	29.5057	949.02472	871.47119	69.62882	906.11462	473.69086	638.04865	1149.62109	457.24655	459.33832	1110.64612	367.41824	285.97971	1111.03369	283.15045	86.14073	1060.74109	232.26675	63.63458	1010.7442	415.96875	31.30186	1047.33374	490.9216	1669.43323	960.90686	NaN	NaN	NaN	NaN	NaN	NaN	NaN	NaN	NaN	NaN	NaN	NaN	NaN	NaN	NaN	NaN	NaN	NaN	NaN	NaN	NaN
116	1.15	580.47229	1597.52905	906.11871	587.65753	1614.64282	1037.51807	450.82626	1562.92822	921.76208	463.00525	1579.04187	1050.95496	423.34253	1399.46704	989.58502	411.10065	1082.96924	987.02625	548.35272	1330.17078	990.79382	604.24481	1169.41431	988.57892	382.42328	1219.69519	1087.62622	498.16647	1362.51624	833.7298	491.94318	1162.78198	767.69769	501.87164	1039.40991	760.3432	516.72144	909.12378	760.06659	522.65137	788.85907	787.57135	501.38962	796.92865	735.90601	511.58817	714.33319	743.08746	498.19333	1355.91101	1149.68713	531.61627	1142.8291	1236.93762	572.08081	1039.45105	1254.24524	640.63867	922.06677	1250.54614	706.06262	850.84418	1209.35315	681.17596	830.54907	1252.20447	733.76312	780.14893	1241.16272	595.80878	928.78381	882.04486	572.35669	929.5863	1118.62512	429.40091	940.1109	913.92023	416.27594	954.26044	1062.23914	616.75623	632.02649	821.51263	689.4325	471.15485	861.74902	697.13348	276.75839	864.88568	752.3573	72.25785	901.76361	729.49896	29.03941	946.28503	904.78064	77.30717	904.875	483.96762	636.97229	1149.52405	465.70816	458.3017	1110.95007	372.58035	286.50409	1111.28906	284.20267	88.4305	1061.32898	233.03543	66.65319	1011.00751	416.12228	31.25346	1047.44043	503.89066	1667.48181	959.54791	NaN	NaN	NaN	NaN	NaN	NaN	NaN	NaN	NaN	NaN	NaN	NaN	NaN	NaN	NaN	NaN	NaN	NaN	NaN	NaN	NaN
117	1.16	593.49872	1595.45459	904.98236	600.8219	1613.08167	1036.35291	463.84476	1560.74231	921.18866	476.35165	1577.20789	1050.10999	437.08371	1397.21802	988.31787	425.38068	1080.83069	985.62128	562.09729	1328.23254	990.51074	618.2406	1167.54419	988.76569	395.9155	1217.45117	1086.448	513.24878	1360.56079	833.15826	507.16751	1160.75586	767.42517	515.30627	1037.26099	760.3858	525.76801	906.63916	759.06744	525.19135	785.5083	785.90552	507.26382	795.50909	732.68237	509.69	711.22986	740.57971	511.06537	1353.96985	1149.12024	545.33429	1141.2876	1236.5708	586.80859	1038.57239	1253.97546	658.35394	923.16821	1249.64478	726.02393	854.46863	1207.99292	701.4837	832.91974	1250.50977	755.64258	784.2691	1239.18323	611.23889	926.45081	882.41492	585.31781	927.46503	1118.79541	444.61084	938.271	911.78522	429.86215	952.33649	1060.15942	628.35651	627.83087	820.23242	703.49548	469.00558	864.26007	718.73761	276.58435	865.11383	782.22797	73.79834	899.63513	760.84564	29.35015	943.68286	934.77777	83.82296	903.73511	494.59674	635.8916	1149.51343	474.70248	457.16006	1111.36182	378.2626	287.02682	1111.72021	285.62506	90.78311	1061.92322	233.68881	70.34967	1011.54865	416.33621	31.21048	1047.64001	516.80389	1665.22791	957.69843	NaN	NaN	NaN	NaN	NaN	NaN	NaN	NaN	NaN	NaN	NaN	NaN	NaN	NaN	NaN	NaN	NaN	NaN	NaN	NaN	NaN
118	1.17	606.46301	1593.60132	903.83997	614.01752	1611.50195	1035.16394	477.12283	1558.28003	920.20288	489.59354	1575.37195	1049.26489	450.6579	1395.12708	987.33698	439.8544	1078.61011	984.05603	575.88501	1326.29895	990.21021	632.38574	1165.69641	988.80402	409.55948	1215.05811	1085.04993	528.54706	1358.7113	832.47485	522.3136	1158.724	766.95758	528.65833	1035.37305	759.78174	535.56195	904.40442	758.13586	529.15942	782.97351	784.42383	515.08704	794.27466	729.99561	508.64111	708.84924	738.56927	523.97552	1352.02124	1148.47302	558.85828	1139.59814	1236.14026	601.03595	1037.46558	1253.67444	675.50031	924.10309	1248.64429	745.05878	857.72705	1206.5321	721.08423	835.07837	1248.61816	776.81708	788.49902	1237.31995	626.65094	924.30298	882.58905	598.68097	925.34235	1118.8302	459.78348	936.41534	909.96729	443.71646	950.26575	1058.30212	640.47229	623.87653	819.50073	718.37451	467.35791	866.34442	739.78497	276.81995	865.01202	809.14185	75.52406	897.96069	788.04816	29.97951	940.89038	961.4939	88.91078	902.87726	505.66248	634.76904	1149.44885	484.39313	455.91925	1111.88501	384.45813	287.63083	1112.35315	287.42065	93.33573	1062.41174	234.90572	74.13293	1012.45917	416.54944	31.1087	1047.87476	529.76031	1663.4353	956.40363	NaN	NaN	NaN	NaN	NaN	NaN	NaN	NaN	NaN	NaN	NaN	NaN	NaN	NaN	NaN	NaN	NaN	NaN	NaN	NaN	NaN
119	1.18	619.5	1591.57178	902.70587	627.08673	1610.01501	1033.93201	490.21616	1556.10632	919.45563	502.87109	1573.42871	1048.26941	464.3309	1392.97131	986.19489	454.48706	1076.48938	982.68536	589.71716	1324.42102	989.85907	646.61243	1163.91455	988.79602	423.20035	1212.54492	1083.35132	544.00793	1356.88342	831.7514	537.49561	1156.88184	766.2381	541.65369	1033.68042	758.65192	546.17743	902.30402	757.26129	534.927	781.1554	783.74005	525.05676	792.89453	728.25714	508.86948	707.19171	737.13269	536.70074	1350.01904	1147.72534	572.0788	1137.80762	1235.53674	614.98785	1036.24207	1253.23779	692.07227	924.85059	1247.44214	763.52679	860.92236	1204.93335	739.92871	837.08875	1246.55493	797.07977	792.39642	1235.24268	642.02594	922.37781	882.60034	612.50378	923.25085	1118.69812	475.10306	934.55438	908.41187	457.79974	948.15125	1056.70801	653.31653	620.80487	819.71368	733.91852	466.40994	868.04431	759.85052	277.04123	865.37561	832.50769	76.63094	897.18585	811.86963	30.4923	939.6817	984.85962	92.2534	902.59863	517.36102	633.54169	1149.4519	494.8298	454.5123	1112.40613	391.30197	288.22043	1113.04517	289.44653	96.3703	1063.62402	236.33733	78.46955	1013.53625	416.66055	30.87187	1048.31848	542.53973	1661.32446	954.96631	NaN	NaN	NaN	NaN	NaN	NaN	NaN	NaN	NaN	NaN	NaN	NaN	NaN	NaN	NaN	NaN	NaN	NaN	NaN	NaN	NaN
120	1.19	632.63525	1589.76074	901.45001	640.20264	1608.5509	1032.73328	503.39926	1553.74866	918.34351	516.09711	1571.60413	1047.31152	478.08182	1390.90442	984.76508	469.3623	1074.28174	981.3067	603.7771	1322.65918	989.37	660.9101	1162.22852	988.6651	436.96722	1210.03552	1081.59827	560.31464	1355.07544	830.61139	552.1842	1155.27063	764.84467	554.30817	1031.67725	756.91962	557.58301	900.26947	756.45569	541.30164	779.12085	783.46228	536.2995	791.11554	727.01654	510.03616	706.38446	736.19208	549.31989	1348.13464	1147.06958	585.06073	1135.98914	1234.85095	628.58618	1034.88428	1252.60754	708.04913	925.37445	1246.03442	781.42017	863.92047	1203.21838	758.02606	838.88037	1244.33533	816.61243	796.33112	1233.2439	657.80164	920.99884	882.19769	626.79529	921.25269	1118.45654	490.25861	932.85156	907.20514	472.2562	946.02643	1055.46533	667.73438	619.19055	820.89771	750.32904	466.08896	869.20898	778.47107	276.8241	865.70081	852.22766	76.72484	897.48376	831.8288	30.01836	939.78168	1004.45264	93.96276	903.14673	529.76337	632.16718	1149.37695	506.1954	453.02042	1112.99109	398.81476	288.87119	1113.74951	291.90933	99.66899	1064.66443	238.33725	83.17509	1014.72675	416.94547	30.78124	1048.75403	555.50775	1659.27283	953.70703	NaN	NaN	NaN	NaN	NaN	NaN	NaN	NaN	NaN	NaN	NaN	NaN	NaN	NaN	NaN	NaN	NaN	NaN	NaN	NaN	NaN
